<svg width="120" height="28" viewBox="0 0 120 28" fill="none" xmlns="http://www.w3.org/2000/svg">
<g>
<path d="M12.0937 26.4924C11.6101 26.8641 10.9761 26.8552 10.5137 26.4813L9.94531 25.9009C8.97957 24.7799 7.99003 23.7143 6.89183 22.7168L4.42661 20.4776C3.71369 19.8301 3.05781 19.1699 2.46511 18.4035C0.923139 16.4097 0.0613106 13.9654 0.00272073 11.4416C-0.0223336 10.3625 0.127021 9.32692 0.394064 8.30512C1.42733 4.35148 4.52893 1.30624 8.50089 0.335784C10.3804 -0.123436 12.3662 -0.11267 14.2501 0.37646C17.2556 1.15679 19.7855 3.14173 21.2417 5.87509C22.8188 8.83543 23.0044 12.3332 21.7956 15.4621C21.306 16.7291 20.6311 17.877 19.7447 18.9069C19.2179 19.5189 18.6688 20.0516 18.0745 20.6003L15.117 23.3306C14.2036 24.1739 13.3978 25.0777 12.5863 26.0126L12.0937 26.4924ZM15.7726 17.4158C18.1537 15.6163 19.2824 12.6193 18.6227 9.70978C18.1472 7.61283 16.7799 5.82364 14.9003 4.77825C12.5069 3.4471 9.56156 3.55735 7.26216 5.03981C4.19741 7.01571 2.9244 10.896 4.36544 14.2518C5.27245 16.3641 7.04401 17.9826 9.25159 18.6366C11.4901 19.2997 13.906 18.8264 15.7726 17.4158Z" fill="#141820"/>
<path d="M15.2313 13.276L11.9803 16.4518C11.6265 16.7973 10.9822 16.8133 10.6161 16.4607L7.68718 13.6402C6.73722 12.7254 6.00992 11.576 6.08961 10.2335C6.14074 9.37191 6.58887 8.61235 7.23726 8.16575C8.60663 7.22258 10.4703 7.72684 11.2922 9.29562C11.6711 8.58759 12.2438 8.06631 12.9878 7.82608C14.4537 7.35282 15.9849 8.17224 16.3935 9.66296C16.5885 10.3745 16.5029 11.1206 16.2051 11.8098C15.9729 12.3474 15.6716 12.8459 15.2313 13.276Z" fill="#141820"/>
</g>
<g transform="translate(29.09 1.7)">
<path d="M11.6193 2.3931C10.5683 1.02284 8.90988 0.337752 6.64418 0.337752H0.337589V25.0718H4.33175V15.3872H6.64418C8.90988 15.3872 10.5683 14.7021 11.6193 13.3318C12.6939 11.9384 13.2311 10.1036 13.2311 7.82763C13.2311 5.55162 12.6939 3.74012 11.6193 2.3931ZM9.23686 8.80306C9.23686 11.079 8.30258 12.2171 6.43394 12.2171H4.33175V3.54272H6.43394C8.30258 3.54272 9.23686 4.68071 9.23686 6.95671V8.80306Z" fill="#141820" stroke="#141820" stroke-width="0.675178"/>
<path d="M14.4827 4.72612V1.03343H18.4069V4.72612H14.4827ZM14.4827 25.0707V7.33888H18.4069V25.0707H14.4827Z" fill="#141820" stroke="#141820" stroke-width="0.675178"/>
<path d="M20.5569 25.0708V7.33893H24.446V9.46397C24.8664 8.58144 25.4153 7.94276 26.0928 7.54795C26.7935 7.12991 27.5293 6.92088 28.3001 6.92088C29.538 6.92088 30.519 7.33893 31.2431 8.17501C31.9672 9.01109 32.3292 10.2768 32.3292 11.9722V25.0708H28.4051V12.6341C28.4051 11.6819 28.2416 11.0084 27.9146 10.6136C27.611 10.2188 27.1672 10.0214 26.5832 10.0214C26.0227 10.0214 25.5321 10.2188 25.1117 10.6136C24.6913 10.9852 24.481 11.6819 24.481 12.7038V25.0708L20.5569 25.0708Z" fill="#141820" stroke="#141820" stroke-width="0.675178"/>
<path d="M34.4319 25.0708V7.33893H38.3209V9.46397C38.7414 8.58144 39.2903 7.94276 39.9676 7.54795C40.6684 7.12991 41.4041 6.92088 42.1749 6.92088C43.4129 6.92088 44.394 7.33893 45.118 8.17501C45.8421 9.01109 46.2042 10.2768 46.2042 11.9722V25.0708H42.2801V12.6341C42.2801 11.6819 42.1166 11.0084 41.7896 10.6136C41.4859 10.2188 41.0421 10.0214 40.4582 10.0214C39.8976 10.0214 39.4071 10.2188 38.9866 10.6136C38.5662 10.9852 38.356 11.6819 38.356 12.7038V25.0708L34.4319 25.0708Z" fill="#141820" stroke="#141820" stroke-width="0.675178"/>
<path d="M48.3065 25.0708V7.33893H52.1956V9.46397C52.616 8.58144 53.165 7.94276 53.8423 7.54795C54.5431 7.12991 55.2788 6.92088 56.0496 6.92088C57.2876 6.92088 58.2687 7.33893 58.9927 8.17501C59.7168 9.01109 60.0789 10.2768 60.0789 11.9722V25.0708H56.1547V12.6341C56.1547 11.6819 55.9912 11.0084 55.6643 10.6136C55.3605 10.2188 54.9168 10.0214 54.3329 10.0214C53.7723 10.0214 53.2817 10.2188 52.8613 10.6136C52.4409 10.9852 52.2307 11.6819 52.2307 12.7038V25.0708L48.3065 25.0708Z" fill="#141820" stroke="#141820" stroke-width="0.675178"/>
<path d="M67.9281 25.4888C66.7134 25.4888 65.6274 25.1985 64.6697 24.6179C63.7353 24.0141 62.9996 23.0387 62.4624 21.6916C61.9485 20.3214 61.6916 18.4982 61.6916 16.2223C61.6916 13.9463 61.9602 12.1348 62.4974 10.7878C63.0346 9.41751 63.7704 8.43048 64.7047 7.82664C65.639 7.2228 66.7134 6.92088 67.9281 6.92088C69.2594 6.92088 70.3222 7.2228 71.1164 7.82664C71.9106 8.43048 72.4945 9.23172 72.8682 10.2304C73.2653 11.2058 73.4988 12.2741 73.5689 13.4353C73.639 14.5734 73.6273 15.6881 73.5339 16.7797H65.6156V18.0338C65.6156 19.7292 65.8142 20.902 66.2112 21.5523C66.6317 22.2026 67.2274 22.5277 67.9982 22.5277C68.7222 22.5277 69.2244 22.2374 69.5047 21.6568C69.8084 21.0762 70.0302 20.1007 70.1704 18.7306L73.639 19.0092C73.4988 21.3316 72.9032 22.9922 71.8522 23.9908C70.801 24.9896 69.493 25.4888 67.9281 25.4888ZM65.6156 14.2017V14.3062H70.1354V14.0972C70.1354 12.4483 69.9601 11.3219 69.6098 10.7181C69.2594 10.1142 68.7222 9.81233 67.9982 9.81233C67.2507 9.81233 66.6668 10.1375 66.2463 10.7878C65.8259 11.4148 65.6156 12.5528 65.6156 14.2017Z" fill="#141820" stroke="#141820" stroke-width="0.675178"/>
<path d="M79.9641 25.4897C79.0298 25.4897 78.1656 25.1994 77.3714 24.6188C76.6006 24.0149 75.9816 23.0396 75.5144 21.6925C75.0473 20.3223 74.8137 18.4991 74.8137 16.2231C74.8137 13.9006 75.0473 12.0659 75.5144 10.7189C75.9816 9.37191 76.6122 8.4081 77.4064 7.82748C78.2006 7.22364 79.0765 6.92172 80.0342 6.92172C80.7349 6.92172 81.3655 7.0843 81.9261 7.40945C82.5101 7.73459 83.0006 8.25713 83.3977 8.97709V0.337589H87.3218V25.0716H83.4327V23.295C83.059 24.0614 82.5684 24.6188 81.9611 24.9672C81.3773 25.3155 80.7115 25.4897 79.9641 25.4897ZM78.8079 18.2785C78.8079 19.7184 78.9948 20.7751 79.3685 21.4486C79.7656 22.1221 80.3261 22.4589 81.0502 22.4589C81.7043 22.4589 82.2531 22.2151 82.6969 21.7273C83.1641 21.2396 83.3977 20.2874 83.3977 18.8707V13.7497C83.3977 12.2169 83.1641 11.195 82.6969 10.6841C82.2531 10.1732 81.7043 9.91768 81.0502 9.91768C80.3261 9.91768 79.7656 10.2544 79.3685 10.928C78.9948 11.6014 78.8079 12.6698 78.8079 14.1329V18.2785Z" fill="#141820" stroke="#141820" stroke-width="0.675178"/>
</g>
</svg>
