<svg preserveAspectRatio="none" overflow="visible" style="display: block;" width="96" height="96" viewBox="0 0 96 96" fill="none" xmlns="http://www.w3.org/2000/svg">
<g id="&#240;&#159;&#140;&#143;&#239;&#184;&#143; &#236;&#149;&#132;&#236;&#139;&#156;&#236;&#149;&#132;&#236;&#153;&#128; &#237;&#152;&#184;&#236;&#163;&#188;&#234;&#176;&#128; &#235;&#179;&#180;&#236;&#157;&#180;&#235;&#138;&#148; &#236;&#167;&#128;&#234;&#181;&#172;" clip-path="url(#clip0_2693_6301)">
<g id="Vector" filter="url(#filter0_d_2693_6301)">
<path d="M48 90C71.196 90 90 71.196 90 48C90 24.804 71.196 6 48 6C24.804 6 6 24.804 6 48C6 71.196 24.804 90 48 90Z" fill="#B2EDD1"/>
</g>
<path id="Vector_2" d="M11.5176 67.2912C11.2728 67.344 11.0376 67.4424 10.836 67.5648C17.8728 80.904 31.8696 90 48 90C71.196 90 90 71.196 90 48C90 24.804 71.196 6 48 6C42.7104 6 37.6512 6.9888 32.9904 8.772C33.24 8.988 33.7032 9.0336 34.0536 9.1296C36.2256 9.7368 38.1744 10.7952 39.7872 12.3528C41.676 14.1744 43.296 16.284 46.4472 15.7464C47.9568 15.4896 49.548 15.7032 51.1008 15.7032C53.0136 15.7032 54.9264 15.744 56.8368 15.6912C58.4784 15.6456 59.8752 16.032 60.9768 17.352C61.992 18.5688 63.2952 19.1184 64.9416 18.9552C66.1848 18.8328 67.4496 18.9648 68.7048 18.9432C69.7416 18.9264 70.2456 19.3488 70.236 20.4312C70.2264 21.4752 69.852 22.1928 68.7624 22.3056C67.9944 22.3848 67.176 22.4736 66.4416 22.3008C65.4528 22.0656 64.8408 22.3776 64.0536 22.9704C62.112 24.4344 60.7248 26.136 60.5976 28.6536C60.5544 29.5248 60.1368 29.9424 59.2344 29.928C58.2888 29.9136 58.0056 29.3928 57.9768 28.5552C57.9504 27.804 57.5856 27.2136 57.0576 26.676C55.7856 25.3848 52.3392 24.7248 50.6016 25.4424C49.8408 25.7568 49.7688 26.3304 49.752 27.0336C49.7328 27.816 50.0448 28.3752 50.7888 28.4712C52.596 28.7016 53.6424 29.82 54.4056 31.332C54.636 31.7904 54.9864 32.028 55.5096 32.1312C57.5064 32.5296 58.1232 34.2672 56.7024 35.7624C55.4496 37.08 54.2016 38.3136 54.0576 40.2768C54 41.0448 53.3328 41.112 52.6944 41.0976C51.9672 41.0808 51.6144 40.7136 51.5544 39.9984C51.4608 38.8872 51.5424 37.8672 52.5096 37.08C53.1552 36.5544 53.7552 35.9448 54.0048 35.1048C54.1392 34.6488 54.3264 34.0896 53.868 33.7776C53.4168 33.4728 53.1192 33.9816 52.8504 34.2672C52.3848 34.7616 51.7536 34.6968 51.1848 34.8168C49.0104 35.2728 47.9256 36.5544 47.9328 38.7624C47.9352 39.78 47.892 40.7856 47.6736 41.7864C47.544 42.3864 47.28 42.7896 46.6608 42.864C45.0264 43.056 44.7264 44.16 44.6928 45.5544C44.6496 47.3424 44.88 49.1376 44.5344 50.916C44.3856 51.6768 44.3808 52.476 43.26 52.5264C42.24 52.5696 41.9544 51.9768 41.6928 51.168C41.4216 50.328 41.3784 49.3488 40.6944 48.7104C39.3864 47.4912 38.4528 46.116 38.2368 44.2824C38.136 43.4232 37.4616 43.212 36.6384 43.2192C35.8728 43.224 35.244 43.4688 35.1744 44.2176C34.98 46.2888 33.7848 47.712 32.3472 49.0296C31.7832 49.548 31.668 50.2872 31.5696 50.9904C31.4664 51.7296 31.4496 52.416 30.4488 52.5192C29.34 52.6344 29.0016 51.9768 28.7616 51.0912C28.4496 49.9416 28.1448 48.7728 27.1272 47.9856C26.1744 47.2512 25.7208 46.2168 25.4976 45.0816C25.3056 44.112 25.1976 43.2192 23.8296 43.2072C22.5024 43.1952 22.3272 43.9872 22.0776 44.9904C21.6072 46.8816 19.9008 47.988 18.192 47.5752C17.064 47.3016 16.4808 46.3584 15.8904 45.456C15.3072 44.5656 14.7216 44.4744 13.8648 45.2472C12.756 46.2456 11.9496 47.4096 12.528 48.8256C13.0344 50.064 13.9776 51.1584 15.5448 51.2808C16.9896 51.3936 18.156 52.116 18.5304 53.4504C18.9192 54.8376 18.8136 56.376 17.4864 57.3744C15.8688 58.5912 15.564 60.1872 15.6168 62.0952C15.72 65.8104 15.0768 66.5352 11.5272 67.2864L11.5176 67.2912ZM63.9864 77.9496C63.9384 77.0784 64.1688 76.3104 64.8048 75.6768C66.0096 74.4768 67.3848 73.4472 67.368 71.4192C67.3608 70.5504 68.3496 70.3416 69.1872 70.3992C70.0032 70.4544 70.572 70.8792 70.6656 71.688C70.8192 73.008 70.788 74.2752 69.648 75.2952C68.5152 76.3104 67.3512 77.2776 67.3704 79.116C67.3824 80.2056 66.2928 80.436 65.3304 80.2824C63.9744 80.064 63.9504 79.008 63.9864 77.9496ZM53.2704 54.696C54.2232 54.5328 54.876 55.1616 55.4784 55.8432C56.5368 57.0408 57.7032 57.9864 59.4312 57.948C60.264 57.9288 60.5424 58.4784 60.54 59.2512C60.5376 60.0552 60.1704 60.432 59.364 60.5088C58.3416 60.6048 57.4968 60.3696 56.8056 59.5632C55.6968 58.2672 54.468 57.1968 52.5816 57.2472C51.7272 57.2688 51.5496 56.6088 51.5688 55.8696C51.5952 54.7512 52.3656 54.696 53.268 54.6984L53.2704 54.696ZM48.3528 49.788C48.4728 48.8184 49.0512 48.348 49.908 48.276C50.7096 48.2448 50.9232 48.6384 50.844 49.2792C50.724 50.2464 50.1504 50.7336 49.2024 50.7912C48.4872 50.8344 48.276 50.4264 48.3528 49.788ZM50.9616 64.2864C52.0968 64.3752 52.8816 63.828 53.0448 62.5584C53.136 61.8528 53.544 61.4232 54.3792 61.4088C55.2864 61.392 55.7304 61.8192 55.8504 62.6184C55.968 63.4104 56.3256 63.924 57.0912 64.1976C60.5088 65.4144 60.6168 65.5776 60.612 69.4416C60.9672 71.2032 60.252 72.8568 58.5984 74.1552C58.2288 74.4456 57.888 74.8128 57.6336 75.2064C56.5704 76.8408 56.2176 77.0016 55.0152 75.5712C53.5032 73.7736 51.7032 73.2432 49.4664 73.4232C48.4536 73.5048 47.4096 73.6584 46.4112 72.8568C44.2272 71.1024 44.6208 67.9824 47.136 65.8248C48.2496 64.8696 49.3872 64.1616 50.9616 64.2864ZM39.6744 54.9888C40.4496 54.8952 41.0016 55.1736 41.1384 55.9392C41.352 57.1392 41.8104 57.8688 43.224 57.8424C44.5824 57.816 44.9208 57.0384 45.1344 55.9512C45.2832 55.1952 45.8112 54.8952 46.5912 54.9864C47.5896 55.1016 47.328 55.8888 47.5056 56.592C47.0856 58.3416 45.732 59.4456 44.244 60.2736C42.9408 60.9984 41.6928 60.4584 40.7376 59.3544C39.948 58.44 38.652 57.84 38.82 56.316C38.8848 55.728 38.82 55.092 39.672 54.9912L39.6744 54.9888ZM16.104 66.4992C16.6776 65.76 17.3904 65.1096 18.132 64.5312C18.3168 64.3872 18.5952 64.7928 18.528 65.5968C18.4608 66.1464 17.9064 66.756 16.9032 66.9216C16.5312 66.984 15.9504 66.6984 16.104 66.4992Z" fill="#61BBF8"/>
</g>
<defs>
<filter id="filter0_d_2693_6301" x="-14" y="-14" width="124" height="124" filterUnits="userSpaceOnUse" color-interpolation-filters="sRGB">
<feFlood flood-opacity="0" result="BackgroundImageFix"/>
<feColorMatrix in="SourceAlpha" type="matrix" values="0 0 0 0 0 0 0 0 0 0 0 0 0 0 0 0 0 0 127 0" result="hardAlpha"/>
<feOffset/>
<feGaussianBlur stdDeviation="10"/>
<feComposite in2="hardAlpha" operator="out"/>
<feColorMatrix type="matrix" values="0 0 0 0 0.556863 0 0 0 0 0.588235 0 0 0 0 0.662745 0 0 0 0.12 0"/>
<feBlend mode="normal" in2="BackgroundImageFix" result="effect1_dropShadow_2693_6301"/>
<feBlend mode="normal" in="SourceGraphic" in2="effect1_dropShadow_2693_6301" result="shape"/>
</filter>
<clipPath id="clip0_2693_6301">
<rect width="96" height="96" fill="white"/>
</clipPath>
</defs>
</svg>
